<svg width="188" height="185" xmlns="http://www.w3.org/2000/svg">
 <!-- Created with Method Draw - http://github.com/duopixel/Method-Draw/ -->
 <g>
  <title>background</title>
  <rect fill="none" id="canvas_background" height="187" width="190" y="-1" x="-1"/>
  <g display="none" overflow="visible" y="0" x="0" height="100%" width="100%" id="canvasGrid">
   <rect fill="url(#gridpattern)" stroke-width="0" y="0" x="0" height="100%" width="100%"/>
  </g>
 </g>
 <g>
  <title>Layer 1</title>
  <path id="svg_1" d="m93.7353,20.85736c7.89996,0.00942 15.44694,1.29918 22.59428,3.45386l-5.6566,9.22476l40.15271,0l-10.04075,-16.39639l-10.03308,-16.39148l-5.28149,8.63726c-9.89836,-3.41227 -20.56916,-5.32197 -31.72787,-5.32197c-51.36268,0 -92.99375,39.25687 -92.99375,87.68715c0,20.10016 7.25026,38.5678 19.31628,53.36414l14.14018,-10.237c-9.75866,-11.95748 -15.6261,-26.87875 -15.65794,-43.1223c0.07107,-39.15524 33.66727,-70.83799 75.18803,-70.89803l0.00001,0zm73.68728,17.54754l-14.14015,10.24191c9.7562,11.95293 15.62368,26.86479 15.65052,43.11317c-0.07108,39.15491 -33.66727,70.83314 -75.19044,70.89766c-7.35815,-0.00897 -14.39763,-1.13711 -21.10852,-3.02379l5.32305,-8.67912l-40.15253,0l10.03332,16.38731l10.04056,16.40991l5.59776,-9.15976c9.49376,3.11633 19.65444,4.85492 30.26636,4.85944c51.37009,-0.00902 92.99402,-39.26593 93.00608,-87.69624c-0.01207,-20.10011 -7.26748,-38.56325 -19.32601,-53.35049l0,-0.00001z" stroke-width="1.5" stroke="#000" fill="#fff"/>
 </g>
</svg>